<svg height="2286" width="720" xmlns="http://www.w3.org/2000/svg">
<rect height="2286" fill="#555" width="720"></rect>
<text fill="#7f7" font-family="Courier New" font-size="12" xml:space="preserve">
<tspan x="10" y="26">18 megabytes installed</tspan>
<tspan x="10" y="42"></tspan>
<tspan x="10" y="58">node_modules</tspan>
<tspan x="10" y="74">└─┬ autocannon@0.16.5 </tspan>
<tspan x="10" y="90">  ├─┬ chalk@1.1.3 </tspan>
<tspan x="10" y="106">  │ ├── ansi-styles@2.2.1 </tspan>
<tspan x="10" y="122">  │ ├── escape-string-regexp@1.0.5 </tspan>
<tspan x="10" y="138">  │ ├─┬ has-ansi@2.0.0 </tspan>
<tspan x="10" y="154">  │ │ └── ansi-regex@2.1.1 </tspan>
<tspan x="10" y="170">  │ ├── strip-ansi@3.0.1 </tspan>
<tspan x="10" y="186">  │ └── supports-color@2.0.0 </tspan>
<tspan x="10" y="202">  ├── color-support@1.1.2 </tspan>
<tspan x="10" y="218">  ├── deep-extend@0.4.1 </tspan>
<tspan x="10" y="234">  ├── hdr-histogram-percentiles-obj@1.1.0 </tspan>
<tspan x="10" y="250">  ├── http-parser-js@0.4.4 </tspan>
<tspan x="10" y="266">  ├─┬ hyperid@1.2.0 </tspan>
<tspan x="10" y="282">  │ └── uuid@2.0.3 </tspan>
<tspan x="10" y="298">  ├── minimist@1.2.0 </tspan>
<tspan x="10" y="314">  ├─┬ native-hdr-histogram@0.4.4 </tspan>
<tspan x="10" y="330">  │ ├── nan@2.6.2 </tspan>
<tspan x="10" y="346">  │ └─┬ node-pre-gyp@0.6.34 </tspan>
<tspan x="10" y="362">  │   ├─┬ mkdirp@0.5.1 </tspan>
<tspan x="10" y="378">  │   │ └── minimist@0.0.8 </tspan>
<tspan x="10" y="394">  │   ├─┬ nopt@4.0.1 </tspan>
<tspan x="10" y="410">  │   │ ├── abbrev@1.1.0 </tspan>
<tspan x="10" y="426">  │   │ └─┬ osenv@0.1.4 </tspan>
<tspan x="10" y="442">  │   │   ├── os-homedir@1.0.2 </tspan>
<tspan x="10" y="458">  │   │   └── os-tmpdir@1.0.2 </tspan>
<tspan x="10" y="474">  │   ├─┬ npmlog@4.0.2 </tspan>
<tspan x="10" y="490">  │   │ ├─┬ are-we-there-yet@1.1.4 </tspan>
<tspan x="10" y="506">  │   │ │ └── delegates@1.0.0 </tspan>
<tspan x="10" y="522">  │   │ ├── console-control-strings@1.1.0 </tspan>
<tspan x="10" y="538">  │   │ ├─┬ gauge@2.7.3 </tspan>
<tspan x="10" y="554">  │   │ │ ├── aproba@1.1.1 </tspan>
<tspan x="10" y="570">  │   │ │ ├── has-unicode@2.0.1 </tspan>
<tspan x="10" y="586">  │   │ │ ├── object-assign@4.1.1 </tspan>
<tspan x="10" y="602">  │   │ │ ├── signal-exit@3.0.2 </tspan>
<tspan x="10" y="618">  │   │ │ ├─┬ string-width@1.0.2 </tspan>
<tspan x="10" y="634">  │   │ │ │ ├── code-point-at@1.1.0 </tspan>
<tspan x="10" y="650">  │   │ │ │ └─┬ is-fullwidth-code-point@1.0.0 </tspan>
<tspan x="10" y="666">  │   │ │ │   └── number-is-nan@1.0.1 </tspan>
<tspan x="10" y="682">  │   │ │ └── wide-align@1.1.0 </tspan>
<tspan x="10" y="698">  │   │ └── set-blocking@2.0.0 </tspan>
<tspan x="10" y="714">  │   ├─┬ rc@1.2.1 </tspan>
<tspan x="10" y="730">  │   │ ├── ini@1.3.4 </tspan>
<tspan x="10" y="746">  │   │ └── strip-json-comments@2.0.1 </tspan>
<tspan x="10" y="762">  │   ├─┬ request@2.81.0 </tspan>
<tspan x="10" y="778">  │   │ ├── aws-sign2@0.6.0 </tspan>
<tspan x="10" y="794">  │   │ ├── aws4@1.6.0 </tspan>
<tspan x="10" y="810">  │   │ ├── caseless@0.12.0 </tspan>
<tspan x="10" y="826">  │   │ ├─┬ combined-stream@1.0.5 </tspan>
<tspan x="10" y="842">  │   │ │ └── delayed-stream@1.0.0 </tspan>
<tspan x="10" y="858">  │   │ ├── extend@3.0.0 </tspan>
<tspan x="10" y="874">  │   │ ├── forever-agent@0.6.1 </tspan>
<tspan x="10" y="890">  │   │ ├─┬ form-data@2.1.4 </tspan>
<tspan x="10" y="906">  │   │ │ └── asynckit@0.4.0 </tspan>
<tspan x="10" y="922">  │   │ ├─┬ har-validator@4.2.1 </tspan>
<tspan x="10" y="938">  │   │ │ └── har-schema@1.0.5 </tspan>
<tspan x="10" y="954">  │   │ ├─┬ hawk@3.1.3 </tspan>
<tspan x="10" y="970">  │   │ │ ├── boom@2.10.1 </tspan>
<tspan x="10" y="986">  │   │ │ ├── cryptiles@2.0.5 </tspan>
<tspan x="10" y="1002">  │   │ │ ├── hoek@2.16.3 </tspan>
<tspan x="10" y="1018">  │   │ │ └── sntp@1.0.9 </tspan>
<tspan x="10" y="1034">  │   │ ├─┬ http-signature@1.1.1 </tspan>
<tspan x="10" y="1050">  │   │ │ ├── assert-plus@0.2.0 </tspan>
<tspan x="10" y="1066">  │   │ │ ├─┬ jsprim@1.4.0 </tspan>
<tspan x="10" y="1082">  │   │ │ │ ├── assert-plus@1.0.0 </tspan>
<tspan x="10" y="1098">  │   │ │ │ ├── extsprintf@1.0.2 </tspan>
<tspan x="10" y="1114">  │   │ │ │ ├── json-schema@0.2.3 </tspan>
<tspan x="10" y="1130">  │   │ │ │ └── verror@1.3.6 </tspan>
<tspan x="10" y="1146">  │   │ │ └─┬ sshpk@1.13.0 </tspan>
<tspan x="10" y="1162">  │   │ │   ├── asn1@0.2.3 </tspan>
<tspan x="10" y="1178">  │   │ │   ├── assert-plus@1.0.0 </tspan>
<tspan x="10" y="1194">  │   │ │   ├── bcrypt-pbkdf@1.0.1 </tspan>
<tspan x="10" y="1210">  │   │ │   ├─┬ dashdash@1.14.1 </tspan>
<tspan x="10" y="1226">  │   │ │   │ └── assert-plus@1.0.0 </tspan>
<tspan x="10" y="1242">  │   │ │   ├── ecc-jsbn@0.1.1 </tspan>
<tspan x="10" y="1258">  │   │ │   ├─┬ getpass@0.1.6 </tspan>
<tspan x="10" y="1274">  │   │ │   │ └── assert-plus@1.0.0 </tspan>
<tspan x="10" y="1290">  │   │ │   ├── jodid25519@1.0.2 </tspan>
<tspan x="10" y="1306">  │   │ │   ├── jsbn@0.1.1 </tspan>
<tspan x="10" y="1322">  │   │ │   └── tweetnacl@0.14.5 </tspan>
<tspan x="10" y="1338">  │   │ ├── is-typedarray@1.0.0 </tspan>
<tspan x="10" y="1354">  │   │ ├── isstream@0.1.2 </tspan>
<tspan x="10" y="1370">  │   │ ├── json-stringify-safe@5.0.1 </tspan>
<tspan x="10" y="1386">  │   │ ├─┬ mime-types@2.1.15 </tspan>
<tspan x="10" y="1402">  │   │ │ └── mime-db@1.27.0 </tspan>
<tspan x="10" y="1418">  │   │ ├── oauth-sign@0.8.2 </tspan>
<tspan x="10" y="1434">  │   │ ├── performance-now@0.2.0 </tspan>
<tspan x="10" y="1450">  │   │ ├── qs@6.4.0 </tspan>
<tspan x="10" y="1466">  │   │ ├── safe-buffer@5.0.1 </tspan>
<tspan x="10" y="1482">  │   │ ├── stringstream@0.0.5 </tspan>
<tspan x="10" y="1498">  │   │ ├─┬ tough-cookie@2.3.2 </tspan>
<tspan x="10" y="1514">  │   │ │ └── punycode@1.4.1 </tspan>
<tspan x="10" y="1530">  │   │ ├── tunnel-agent@0.6.0 </tspan>
<tspan x="10" y="1546">  │   │ └── uuid@3.0.1 </tspan>
<tspan x="10" y="1562">  │   ├─┬ rimraf@2.6.1 </tspan>
<tspan x="10" y="1578">  │   │ └─┬ glob@7.1.1 </tspan>
<tspan x="10" y="1594">  │   │   ├── fs.realpath@1.0.0 </tspan>
<tspan x="10" y="1610">  │   │   ├── inflight@1.0.6 </tspan>
<tspan x="10" y="1626">  │   │   ├─┬ minimatch@3.0.3 </tspan>
<tspan x="10" y="1642">  │   │   │ └─┬ brace-expansion@1.1.7 </tspan>
<tspan x="10" y="1658">  │   │   │   ├── balanced-match@0.4.2 </tspan>
<tspan x="10" y="1674">  │   │   │   └── concat-map@0.0.1 </tspan>
<tspan x="10" y="1690">  │   │   └── path-is-absolute@1.0.1 </tspan>
<tspan x="10" y="1706">  │   ├── semver@5.3.0 </tspan>
<tspan x="10" y="1722">  │   ├─┬ tar@2.2.1 </tspan>
<tspan x="10" y="1738">  │   │ ├── block-stream@0.0.9 </tspan>
<tspan x="10" y="1754">  │   │ ├─┬ fstream@1.0.11 </tspan>
<tspan x="10" y="1770">  │   │ │ └── graceful-fs@4.1.11 </tspan>
<tspan x="10" y="1786">  │   │ └── inherits@2.0.3 </tspan>
<tspan x="10" y="1802">  │   └─┬ tar-pack@3.4.0 </tspan>
<tspan x="10" y="1818">  │     ├─┬ debug@2.6.4 </tspan>
<tspan x="10" y="1834">  │     │ └── ms@0.7.3 </tspan>
<tspan x="10" y="1850">  │     ├── fstream-ignore@1.0.5 </tspan>
<tspan x="10" y="1866">  │     ├─┬ once@1.4.0 </tspan>
<tspan x="10" y="1882">  │     │ └── wrappy@1.0.2 </tspan>
<tspan x="10" y="1898">  │     ├─┬ readable-stream@2.2.9 </tspan>
<tspan x="10" y="1914">  │     │ ├── buffer-shims@1.0.0 </tspan>
<tspan x="10" y="1930">  │     │ ├── core-util-is@1.0.2 </tspan>
<tspan x="10" y="1946">  │     │ ├── isarray@1.0.0 </tspan>
<tspan x="10" y="1962">  │     │ ├── process-nextick-args@1.0.7 </tspan>
<tspan x="10" y="1978">  │     │ ├── string_decoder@1.0.0 </tspan>
<tspan x="10" y="1994">  │     │ └── util-deprecate@1.0.2 </tspan>
<tspan x="10" y="2010">  │     └── uid-number@0.0.6 </tspan>
<tspan x="10" y="2026">  ├── pretty-bytes@4.0.2 </tspan>
<tspan x="10" y="2042">  ├── progress@1.1.8 </tspan>
<tspan x="10" y="2058">  ├── reinterval@1.1.0 </tspan>
<tspan x="10" y="2074">  ├── retimer@1.0.1 </tspan>
<tspan x="10" y="2090">  ├─┬ table@4.0.1 </tspan>
<tspan x="10" y="2106">  │ ├─┬ ajv@4.11.7 </tspan>
<tspan x="10" y="2122">  │ │ ├── co@4.6.0 </tspan>
<tspan x="10" y="2138">  │ │ └─┬ json-stable-stringify@1.0.1 </tspan>
<tspan x="10" y="2154">  │ │   └── jsonify@0.0.0 </tspan>
<tspan x="10" y="2170">  │ ├── ajv-keywords@1.5.1 </tspan>
<tspan x="10" y="2186">  │ ├── lodash@4.17.4 </tspan>
<tspan x="10" y="2202">  │ ├── slice-ansi@0.0.4 </tspan>
<tspan x="10" y="2218">  │ └─┬ string-width@2.0.0 </tspan>
<tspan x="10" y="2234">  │   └── is-fullwidth-code-point@2.0.0 </tspan>
<tspan x="10" y="2250">  ├── timestring@3.2.0 </tspan>
<tspan x="10" y="2266">  └── xtend@4.0.1</tspan>
</text>
</svg>
